<svg width="20" height="21" viewBox="0 0 20 21" fill="none" xmlns="http://www.w3.org/2000/svg">
<path fill-rule="evenodd" clip-rule="evenodd" d="M10 20.5C15.5228 20.5 20 16.0228 20 10.5C20 4.97715 15.5228 0.5 10 0.5C4.47715 0.5 0 4.97715 0 10.5C0 16.0228 4.47715 20.5 10 20.5Z" fill="#007AFF"/>
<path d="M9.88338 4.50673L10 4.5C10.5128 4.5 10.9355 4.88604 10.9933 5.38338L11 5.5V9.5H15C15.5128 9.5 15.9355 9.88604 15.9933 10.3834L16 10.5C16 11.0128 15.614 11.4355 15.1166 11.4933L15 11.5H11V15.5C11 16.0128 10.614 16.4355 10.1166 16.4933L10 16.5C9.48716 16.5 9.06449 16.114 9.00673 15.6166L9 15.5V11.5H5C4.48716 11.5 4.06449 11.114 4.00673 10.6166L4 10.5C4 9.98716 4.38604 9.56449 4.88338 9.50673L5 9.5H9V5.5C9 4.98716 9.38604 4.56449 9.88338 4.50673L10 4.5L9.88338 4.50673Z" fill="white"/>
</svg>
