<svg width="19" height="16" viewBox="0 0 19 16" fill="none" xmlns="http://www.w3.org/2000/svg">
<path fill-rule="evenodd" clip-rule="evenodd" d="M10.3131 0.25C10.8705 0.25 11.4027 0.482674 11.7813 0.891916L13.5 2.75H15.25C16.6307 2.75 17.75 3.86929 17.75 5.25V12.75C17.75 14.1307 16.6307 15.25 15.25 15.25H2.75C1.36929 15.25 0.25 14.1307 0.25 12.75V5.25C0.25 3.86929 1.36929 2.75 2.75 2.75H4.5L6.21873 0.891916C6.59728 0.482674 7.12945 0.25 7.68693 0.25H10.3131ZM9 4.25C6.65279 4.25 4.75 6.15279 4.75 8.5C4.75 10.8472 6.65279 12.75 9 12.75C11.3472 12.75 13.25 10.8472 13.25 8.5C13.25 6.15279 11.3472 4.25 9 4.25ZM9 5.25C10.7949 5.25 12.25 6.70507 12.25 8.5C12.25 10.2949 10.7949 11.75 9 11.75C7.20507 11.75 5.75 10.2949 5.75 8.5C5.75 6.70507 7.20507 5.25 9 5.25Z" fill="#007AFF"/>
</svg>
