<svg width="25" height="27" viewBox="0 0 25 27" fill="none" xmlns="http://www.w3.org/2000/svg">
<path fill-rule="evenodd" clip-rule="evenodd" d="M19 16C22.0376 16 24.5 18.4624 24.5 21.5C24.5 24.5376 22.0376 27 19 27C15.9624 27 13.5 24.5376 13.5 21.5C13.5 18.4624 15.9624 16 19 16ZM19.8828 18.4996C19.8554 18.4181 19.7791 18.3633 19.6932 18.3633H18.2269C18.141 18.3633 18.0646 18.4182 18.0373 18.4997L16.2808 23.7364C16.2374 23.866 16.3338 24 16.4704 24H17.4645C17.5533 24 17.6315 23.9415 17.6564 23.8563L17.9354 22.9054C17.9604 22.8202 18.0386 22.7617 18.1273 22.7617H19.6663C19.7557 22.7617 19.8343 22.8211 19.8587 22.9071L20.1277 23.8546C20.1521 23.9406 20.2307 24 20.3201 24H21.4533C21.59 24 21.6864 23.8659 21.6428 23.7363L19.8828 18.4996ZM12.0059 0.454038C12.4796 0.650372 12.7223 1.16882 12.5853 1.65038L12.5469 1.76069L9.33827 9.4998L14.5994 9.5C14.7881 9.5 14.9719 9.55335 15.1302 9.6525L15.2439 9.73534C15.6337 10.0639 15.7095 10.6267 15.439 11.0435L15.3641 11.1444L5.40948 22.9561C5.12869 23.2892 4.6645 23.4023 4.26198 23.2355C3.78822 23.0391 3.54554 22.5207 3.68257 22.0391L3.72101 21.9288L7.05427 13.8828L1.92629 13.8835C1.73762 13.8835 1.5538 13.8302 1.39548 13.731L1.28185 13.6482C0.892031 13.3196 0.816183 12.7568 1.08676 12.34L1.16163 12.2391L10.8584 0.733416C11.1392 0.400246 11.6034 0.287231 12.0059 0.454038ZM18.9424 19.6328L19.4741 21.475C19.5111 21.6029 19.4151 21.7305 19.282 21.7305H18.5183C18.3848 21.7305 18.2888 21.6021 18.3265 21.474L18.8682 19.6328H18.9424Z" fill="white"/>
</svg>
