<svg width="36" height="30" viewBox="0 0 36 30" fill="none" xmlns="http://www.w3.org/2000/svg">
<mask id="path-1-outside-1_0_9166" maskUnits="userSpaceOnUse" x="0.75" y="0.25" width="35" height="29" fill="black">
<rect fill="white" x="0.75" y="0.25" width="35" height="29"/>
<path fill-rule="evenodd" clip-rule="evenodd" d="M29.75 1.25C32.5114 1.25 34.75 3.48858 34.75 6.25V23.25C34.75 26.0114 32.5114 28.25 29.75 28.25H6.75C3.98858 28.25 1.75 26.0114 1.75 23.25V6.25C1.75 3.48858 3.98858 1.25 6.75 1.25H29.75ZM32.6912 21.574L27.6289 17.5317C27.2698 17.2449 26.7668 17.2425 26.4069 17.5116L26.3125 17.5917L18.2614 25.3192L14.6634 21.9783C14.3149 21.6547 13.7927 21.6247 13.4119 21.8901L13.3118 21.9698L8.583 26.25H29.75C31.4069 26.25 32.75 24.9069 32.75 23.25V21.615L32.6912 21.574ZM6.75 3.25H29.75C31.4069 3.25 32.75 4.59315 32.75 6.25V19.062L28.8769 15.9688L28.7208 15.8522C27.5558 15.0388 25.9656 15.1525 24.9276 16.1487L18.2386 22.5688L16.0243 20.5127L15.8786 20.3858C14.7382 19.4547 13.075 19.4862 11.9694 20.4873L5.78085 26.09C4.59957 25.687 3.75 24.5677 3.75 23.25V6.25C3.75 4.59315 5.09315 3.25 6.75 3.25Z"/>
</mask>
<path fill-rule="evenodd" clip-rule="evenodd" d="M29.75 1.25C32.5114 1.25 34.75 3.48858 34.75 6.25V23.25C34.75 26.0114 32.5114 28.25 29.75 28.25H6.75C3.98858 28.25 1.75 26.0114 1.75 23.25V6.25C1.75 3.48858 3.98858 1.25 6.75 1.25H29.75ZM32.6912 21.574L27.6289 17.5317C27.2698 17.2449 26.7668 17.2425 26.4069 17.5116L26.3125 17.5917L18.2614 25.3192L14.6634 21.9783C14.3149 21.6547 13.7927 21.6247 13.4119 21.8901L13.3118 21.9698L8.583 26.25H29.75C31.4069 26.25 32.75 24.9069 32.75 23.25V21.615L32.6912 21.574ZM6.75 3.25H29.75C31.4069 3.25 32.75 4.59315 32.75 6.25V19.062L28.8769 15.9688L28.7208 15.8522C27.5558 15.0388 25.9656 15.1525 24.9276 16.1487L18.2386 22.5688L16.0243 20.5127L15.8786 20.3858C14.7382 19.4547 13.075 19.4862 11.9694 20.4873L5.78085 26.09C4.59957 25.687 3.75 24.5677 3.75 23.25V6.25C3.75 4.59315 5.09315 3.25 6.75 3.25Z" fill="white"/>
<path d="M27.6289 17.5317L27.0049 18.3131L27.0049 18.3131L27.6289 17.5317ZM32.6912 21.574L32.0672 22.3555L32.0928 22.3759L32.1196 22.3946L32.6912 21.574ZM26.4069 17.5116L25.8082 16.7106L25.7835 16.729L25.76 16.749L26.4069 17.5116ZM26.3125 17.5917L25.6656 16.8291L25.6422 16.849L25.62 16.8702L26.3125 17.5917ZM18.2614 25.3192L17.5809 26.052L18.2727 26.6943L18.9538 26.0406L18.2614 25.3192ZM14.6634 21.9783L15.3439 21.2455L15.3439 21.2455L14.6634 21.9783ZM13.4119 21.8901L12.8401 21.0697L12.8139 21.088L12.789 21.1078L13.4119 21.8901ZM13.3118 21.9698L12.6889 21.1875L12.6642 21.2072L12.6407 21.2284L13.3118 21.9698ZM8.583 26.25L7.91194 25.5086L5.98802 27.25H8.583V26.25ZM32.75 21.615H33.75V21.0929L33.3216 20.7945L32.75 21.615ZM32.75 19.062L32.126 19.8434L33.75 21.1404V19.062H32.75ZM28.8769 15.9688L29.501 15.1874L29.4884 15.1774L29.4755 15.1678L28.8769 15.9688ZM28.7208 15.8522L29.3194 15.0511L29.3065 15.0415L29.2933 15.0322L28.7208 15.8522ZM24.9276 16.1487L25.62 16.8702L24.9276 16.1487ZM18.2386 22.5688L17.5582 23.3016L18.25 23.944L18.9311 23.2903L18.2386 22.5688ZM16.0243 20.5127L16.7047 19.7799L16.6931 19.7691L16.6811 19.7587L16.0243 20.5127ZM15.8786 20.3858L16.5354 19.6317L16.5234 19.6213L16.511 19.6112L15.8786 20.3858ZM11.9694 20.4873L12.6406 21.2286L12.6406 21.2285L11.9694 20.4873ZM5.78085 26.09L5.45796 27.0364L6.01538 27.2266L6.452 26.8313L5.78085 26.09ZM35.75 6.25C35.75 2.93629 33.0637 0.25 29.75 0.25V2.25C31.9591 2.25 33.75 4.04086 33.75 6.25H35.75ZM35.75 23.25V6.25H33.75V23.25H35.75ZM29.75 29.25C33.0637 29.25 35.75 26.5637 35.75 23.25H33.75C33.75 25.4591 31.9591 27.25 29.75 27.25V29.25ZM6.75 29.25H29.75V27.25H6.75V29.25ZM0.75 23.25C0.75 26.5637 3.43629 29.25 6.75 29.25V27.25C4.54086 27.25 2.75 25.4591 2.75 23.25H0.75ZM0.75 6.25V23.25H2.75V6.25H0.75ZM6.75 0.25C3.43629 0.25 0.75 2.93629 0.75 6.25H2.75C2.75 4.04086 4.54086 2.25 6.75 2.25V0.25ZM29.75 0.25H6.75V2.25H29.75V0.25ZM27.0049 18.3131L32.0672 22.3555L33.3152 20.7926L28.2529 16.7503L27.0049 18.3131ZM27.0055 18.3126L27.0049 18.3131L28.2529 16.7503C27.5342 16.1764 26.5287 16.1721 25.8082 16.7106L27.0055 18.3126ZM26.9594 18.3542L27.0538 18.2741L25.76 16.749L25.6656 16.8291L26.9594 18.3542ZM18.9538 26.0406L27.0049 18.3131L25.62 16.8702L17.5689 24.5977L18.9538 26.0406ZM13.983 22.7111L17.5809 26.052L18.9418 24.5864L15.3439 21.2455L13.983 22.7111ZM13.9837 22.7105L13.983 22.7111L15.3439 21.2455C14.6465 20.598 13.6024 20.5384 12.8401 21.0697L13.9837 22.7105ZM13.9347 22.7521L14.0348 22.6724L12.789 21.1078L12.6889 21.1875L13.9347 22.7521ZM9.25406 26.9914L13.9828 22.7112L12.6407 21.2284L7.91194 25.5086L9.25406 26.9914ZM29.75 25.25H8.583V27.25H29.75V25.25ZM31.75 23.25C31.75 24.3546 30.8546 25.25 29.75 25.25V27.25C31.9591 27.25 33.75 25.4591 33.75 23.25H31.75ZM31.75 21.615V23.25H33.75V21.615H31.75ZM32.1196 22.3946L32.1784 22.4355L33.3216 20.7945L33.2628 20.7535L32.1196 22.3946ZM29.75 2.25H6.75V4.25H29.75V2.25ZM33.75 6.25C33.75 4.04086 31.9591 2.25 29.75 2.25V4.25C30.8546 4.25 31.75 5.14543 31.75 6.25H33.75ZM33.75 19.062V6.25H31.75V19.062H33.75ZM28.2529 16.7502L32.126 19.8434L33.374 18.2806L29.501 15.1874L28.2529 16.7502ZM28.1222 16.6532L28.2783 16.7699L29.4755 15.1678L29.3194 15.0511L28.1222 16.6532ZM25.62 16.8702C26.3118 16.2062 27.3722 16.1302 28.1483 16.6721L29.2933 15.0322C27.7394 13.9473 25.6193 14.0987 24.2351 15.4273L25.62 16.8702ZM18.9311 23.2903L25.62 16.8702L24.2351 15.4273L17.5462 21.8474L18.9311 23.2903ZM15.3439 21.2455L17.5582 23.3016L18.9191 21.836L16.7047 19.7799L15.3439 21.2455ZM15.2218 21.1398L15.3675 21.2668L16.6811 19.7587L16.5354 19.6317L15.2218 21.1398ZM12.6406 21.2285C13.3774 20.5614 14.4865 20.5401 15.2462 21.1604L16.511 19.6112C14.9899 18.3692 12.7725 18.4111 11.2982 19.746L12.6406 21.2285ZM6.452 26.8313L12.6406 21.2286L11.2983 19.7459L5.1097 25.3487L6.452 26.8313ZM2.75 23.25C2.75 25.0085 3.88414 26.4995 5.45796 27.0364L6.10373 25.1436C5.315 24.8745 4.75 24.1269 4.75 23.25H2.75ZM2.75 6.25V23.25H4.75V6.25H2.75ZM6.75 2.25C4.54086 2.25 2.75 4.04086 2.75 6.25H4.75C4.75 5.14543 5.64543 4.25 6.75 4.25V2.25Z" fill="black" fill-opacity="0.2" mask="url(#path-1-outside-1_0_9166)"/>
</svg>
