<svg width="24" height="32" viewBox="0 0 24 32" fill="none" xmlns="http://www.w3.org/2000/svg">
<g filter="url(#filter0_d_0_8471)">
<path fill-rule="evenodd" clip-rule="evenodd" d="M12 0C14.4853 0 16.5 2.01472 16.5 4.5V11.5C16.5 13.9853 14.4853 16 12 16C9.51471 16 7.49999 13.9853 7.49999 11.5V4.5C7.49999 2.01472 9.51471 0 12 0ZM4.74999 10.3284C5.04823 10.3284 5.29564 10.546 5.34214 10.831L5.34999 10.9284V11.0603C5.34999 14.8004 8.32949 17.8284 12 17.8284C15.5924 17.8284 18.5229 14.9278 18.646 11.2981L18.65 11.0603V10.9388C18.65 10.6074 18.9186 10.3388 19.25 10.3388C19.5482 10.3388 19.7956 10.5564 19.8421 10.8415L19.85 10.9388L19.8463 11.3084C19.7233 15.3891 16.5766 18.7005 12.5999 19.0055L12.6 22.5C12.6 22.8314 12.3314 23.1 12 23.1C11.7018 23.1 11.4543 22.8824 11.4078 22.5973L11.4 22.5L11.4005 19.0055C7.42608 18.7009 4.28069 15.3934 4.15396 11.3161L4.14999 10.9284C4.14999 10.597 4.41862 10.3284 4.74999 10.3284ZM8.69999 4.5C8.69999 2.67746 10.1775 1.2 12 1.2C13.8225 1.2 15.3 2.67746 15.3 4.5V11.5C15.3 13.3225 13.8225 14.8 12 14.8C10.1775 14.8 8.69999 13.3225 8.69999 11.5V4.5Z" fill="#007AFF"/>
</g>
<defs>
<filter id="filter0_d_0_8471" x="0.149994" y="0" width="23.7" height="31.1" filterUnits="userSpaceOnUse" color-interpolation-filters="sRGB">
<feFlood flood-opacity="0" result="BackgroundImageFix"/>
<feColorMatrix in="SourceAlpha" type="matrix" values="0 0 0 0 0 0 0 0 0 0 0 0 0 0 0 0 0 0 127 0" result="hardAlpha"/>
<feOffset dy="4"/>
<feGaussianBlur stdDeviation="2"/>
<feComposite in2="hardAlpha" operator="out"/>
<feColorMatrix type="matrix" values="0 0 0 0 0 0 0 0 0 0 0 0 0 0 0 0 0 0 0.25 0"/>
<feBlend mode="normal" in2="BackgroundImageFix" result="effect1_dropShadow_0_8471"/>
<feBlend mode="normal" in="SourceGraphic" in2="effect1_dropShadow_0_8471" result="shape"/>
</filter>
</defs>
</svg>
