<svg width="38" height="33" viewBox="0 0 38 33" fill="none" xmlns="http://www.w3.org/2000/svg">
<mask id="path-1-outside-1_0_9172" maskUnits="userSpaceOnUse" x="0.75" y="0.75" width="37" height="32" fill="black">
<rect fill="white" x="0.75" y="0.75" width="37" height="32"/>
<path fill-rule="evenodd" clip-rule="evenodd" d="M24.7711 2.79788C24.0338 2.1238 23.071 1.75 22.072 1.75H16.428C15.429 1.75 14.4662 2.1238 13.7289 2.79788L11.6461 4.70212C10.9088 5.3762 9.94603 5.75 8.94705 5.75H7.75C4.43629 5.75 1.75 8.43629 1.75 11.75V25.5C1.75 28.8137 4.43629 31.5 7.75 31.5H30.75C34.0637 31.5 36.75 28.8137 36.75 25.5V11.75C36.75 8.43629 34.0637 5.75 30.75 5.75H29.553C28.554 5.75 27.5912 5.3762 26.8539 4.70212L24.7711 2.79788ZM16.428 3.75H22.072C22.5715 3.75 23.0529 3.9369 23.4216 4.27394L25.5043 6.17817C26.6103 7.18929 28.0545 7.75 29.553 7.75H30.75C32.9591 7.75 34.75 9.54086 34.75 11.75V25.5C34.75 27.7091 32.9591 29.5 30.75 29.5H7.75C5.54086 29.5 3.75 27.7091 3.75 25.5V11.75C3.75 9.54086 5.54086 7.75 7.75 7.75H8.94705C10.4455 7.75 11.8897 7.18929 12.9957 6.17817L15.0784 4.27394C15.4471 3.9369 15.9285 3.75 16.428 3.75ZM13.0464 13.7817C13.0997 13.8177 13.1456 13.8636 13.1815 13.9169L15.0134 16.6346C15.1678 16.8636 15.1073 17.1743 14.8783 17.3286C14.7957 17.3843 14.6984 17.414 14.5988 17.414L13.5194 17.4146C13.7619 20.5482 16.2521 23 19.2721 23C20.3717 23 21.4246 22.6758 22.3359 22.0723C22.6813 21.8437 23.1466 21.9382 23.3753 22.2836C23.604 22.629 23.5094 23.0943 23.1641 23.323C22.0098 24.0873 20.6695 24.5 19.2721 24.5C15.41 24.5 12.2632 21.3641 12.0157 17.4141L10.935 17.414C10.6589 17.414 10.435 17.1902 10.435 16.914C10.435 16.8145 10.4647 16.7171 10.5204 16.6346L12.3523 13.9169C12.5067 13.6879 12.8174 13.6274 13.0464 13.7817ZM26.4043 16.9384C26.1568 12.9884 23.01 9.8525 19.1479 9.8525C17.7505 9.8525 16.4102 10.2652 15.2559 11.0295C14.9106 11.2582 14.816 11.7235 15.0447 12.0689C15.2734 12.4143 15.7387 12.5088 16.0841 12.2802C16.9954 11.6767 18.0484 11.3525 19.1479 11.3525C22.1679 11.3525 24.6581 13.8043 24.9006 16.9379L23.8212 16.9385C23.7216 16.9385 23.6243 16.9682 23.5417 17.0238C23.3127 17.1782 23.2522 17.4889 23.4066 17.7179L25.2385 20.4356C25.2744 20.4889 25.3203 20.5348 25.3736 20.5708C25.6026 20.7251 25.9133 20.6646 26.0677 20.4356L27.8996 17.7179C27.9553 17.6353 27.985 17.538 27.985 17.4385C27.985 17.1623 27.7611 16.9385 27.485 16.9385L26.4043 16.9384Z"/>
</mask>
<path fill-rule="evenodd" clip-rule="evenodd" d="M24.7711 2.79788C24.0338 2.1238 23.071 1.75 22.072 1.75H16.428C15.429 1.75 14.4662 2.1238 13.7289 2.79788L11.6461 4.70212C10.9088 5.3762 9.94603 5.75 8.94705 5.75H7.75C4.43629 5.75 1.75 8.43629 1.75 11.75V25.5C1.75 28.8137 4.43629 31.5 7.75 31.5H30.75C34.0637 31.5 36.75 28.8137 36.75 25.5V11.75C36.75 8.43629 34.0637 5.75 30.75 5.75H29.553C28.554 5.75 27.5912 5.3762 26.8539 4.70212L24.7711 2.79788ZM16.428 3.75H22.072C22.5715 3.75 23.0529 3.9369 23.4216 4.27394L25.5043 6.17817C26.6103 7.18929 28.0545 7.75 29.553 7.75H30.75C32.9591 7.75 34.75 9.54086 34.75 11.75V25.5C34.75 27.7091 32.9591 29.5 30.75 29.5H7.75C5.54086 29.5 3.75 27.7091 3.75 25.5V11.75C3.75 9.54086 5.54086 7.75 7.75 7.75H8.94705C10.4455 7.75 11.8897 7.18929 12.9957 6.17817L15.0784 4.27394C15.4471 3.9369 15.9285 3.75 16.428 3.75ZM13.0464 13.7817C13.0997 13.8177 13.1456 13.8636 13.1815 13.9169L15.0134 16.6346C15.1678 16.8636 15.1073 17.1743 14.8783 17.3286C14.7957 17.3843 14.6984 17.414 14.5988 17.414L13.5194 17.4146C13.7619 20.5482 16.2521 23 19.2721 23C20.3717 23 21.4246 22.6758 22.3359 22.0723C22.6813 21.8437 23.1466 21.9382 23.3753 22.2836C23.604 22.629 23.5094 23.0943 23.1641 23.323C22.0098 24.0873 20.6695 24.5 19.2721 24.5C15.41 24.5 12.2632 21.3641 12.0157 17.4141L10.935 17.414C10.6589 17.414 10.435 17.1902 10.435 16.914C10.435 16.8145 10.4647 16.7171 10.5204 16.6346L12.3523 13.9169C12.5067 13.6879 12.8174 13.6274 13.0464 13.7817ZM26.4043 16.9384C26.1568 12.9884 23.01 9.8525 19.1479 9.8525C17.7505 9.8525 16.4102 10.2652 15.2559 11.0295C14.9106 11.2582 14.816 11.7235 15.0447 12.0689C15.2734 12.4143 15.7387 12.5088 16.0841 12.2802C16.9954 11.6767 18.0484 11.3525 19.1479 11.3525C22.1679 11.3525 24.6581 13.8043 24.9006 16.9379L23.8212 16.9385C23.7216 16.9385 23.6243 16.9682 23.5417 17.0238C23.3127 17.1782 23.2522 17.4889 23.4066 17.7179L25.2385 20.4356C25.2744 20.4889 25.3203 20.5348 25.3736 20.5708C25.6026 20.7251 25.9133 20.6646 26.0677 20.4356L27.8996 17.7179C27.9553 17.6353 27.985 17.538 27.985 17.4385C27.985 17.1623 27.7611 16.9385 27.485 16.9385L26.4043 16.9384Z" fill="white"/>
<path d="M24.7711 2.79788L25.4459 2.05986V2.05986L24.7711 2.79788ZM13.7289 2.79788L14.4036 3.53591L13.7289 2.79788ZM11.6461 4.70212L10.9714 3.96409L11.6461 4.70212ZM26.8539 4.70212L26.1791 5.44014V5.44014L26.8539 4.70212ZM23.4216 4.27394L22.7468 5.01197L22.7468 5.01197L23.4216 4.27394ZM25.5043 6.17817L24.8296 6.9162L25.5043 6.17817ZM12.9957 6.17817L13.6704 6.9162H13.6704L12.9957 6.17817ZM15.0784 4.27394L14.4036 3.53591L14.4036 3.53591L15.0784 4.27394ZM13.1815 13.9169L12.3523 14.4758L12.3523 14.4758L13.1815 13.9169ZM13.0464 13.7817L12.4875 14.6109L12.4875 14.6109L13.0464 13.7817ZM15.0134 16.6346L15.8427 16.0756L15.8427 16.0756L15.0134 16.6346ZM14.8783 17.3286L15.4373 18.1579L15.4373 18.1579L14.8783 17.3286ZM14.5988 17.414V16.414H14.5984L14.5988 17.414ZM13.5194 17.4146L13.5189 16.4146L12.439 16.4151L12.5223 17.4917L13.5194 17.4146ZM22.3359 22.0723L22.888 22.9061H22.888L22.3359 22.0723ZM23.1641 23.323L22.612 22.4892L22.612 22.4892L23.1641 23.323ZM12.0157 17.4141L13.0137 17.3515L12.955 16.4141L12.0157 16.4141L12.0157 17.4141ZM10.935 17.414L10.935 16.414H10.935V17.414ZM10.5204 16.6346L11.3496 17.1935L10.5204 16.6346ZM12.3523 13.9169L13.1815 14.4758L13.1815 14.4758L12.3523 13.9169ZM26.4043 16.9384L25.4063 17.001L25.465 17.9384L26.4043 17.9384L26.4043 16.9384ZM15.2559 11.0295L15.808 11.8633L15.808 11.8633L15.2559 11.0295ZM15.0447 12.0689L14.2109 12.621L14.2109 12.621L15.0447 12.0689ZM16.0841 12.2802L15.532 11.4464L16.0841 12.2802ZM24.9006 16.9379L24.9011 17.9379L25.981 17.9374L25.8977 16.8608L24.9006 16.9379ZM23.8212 16.9385V17.9385H23.8216L23.8212 16.9385ZM23.5417 17.0238L24.1006 17.8531L24.1006 17.8531L23.5417 17.0238ZM23.4066 17.7179L24.2358 17.159L24.2358 17.159L23.4066 17.7179ZM25.2385 20.4356L26.0677 19.8767L26.0677 19.8767L25.2385 20.4356ZM25.3736 20.5708L25.9325 19.7416L25.9325 19.7415L25.3736 20.5708ZM26.0677 20.4356L25.2385 19.8767L25.2385 19.8767L26.0677 20.4356ZM27.8996 17.7179L28.7288 18.2769L28.7288 18.2769L27.8996 17.7179ZM27.485 16.9385L27.485 17.9385H27.485V16.9385ZM22.072 2.75C22.8213 2.75 23.5434 3.03035 24.0964 3.53591L25.4459 2.05986C24.5243 1.21726 23.3208 0.75 22.072 0.75V2.75ZM16.428 2.75H22.072V0.75H16.428V2.75ZM14.4036 3.53591C14.9566 3.03035 15.6787 2.75 16.428 2.75V0.75C15.1792 0.75 13.9757 1.21726 13.0541 2.05986L14.4036 3.53591ZM12.3209 5.44014L14.4036 3.53591L13.0541 2.05986L10.9714 3.96409L12.3209 5.44014ZM8.94705 6.75C10.1958 6.75 11.3993 6.28274 12.3209 5.44014L10.9714 3.96409C10.4184 4.46965 9.69628 4.75 8.94705 4.75V6.75ZM7.75 6.75H8.94705V4.75H7.75V6.75ZM2.75 11.75C2.75 8.98858 4.98858 6.75 7.75 6.75V4.75C3.88401 4.75 0.75 7.88401 0.75 11.75H2.75ZM2.75 25.5V11.75H0.75V25.5H2.75ZM7.75 30.5C4.98858 30.5 2.75 28.2614 2.75 25.5H0.75C0.75 29.366 3.88401 32.5 7.75 32.5V30.5ZM30.75 30.5H7.75V32.5H30.75V30.5ZM35.75 25.5C35.75 28.2614 33.5114 30.5 30.75 30.5V32.5C34.616 32.5 37.75 29.366 37.75 25.5H35.75ZM35.75 11.75V25.5H37.75V11.75H35.75ZM30.75 6.75C33.5114 6.75 35.75 8.98858 35.75 11.75H37.75C37.75 7.88401 34.616 4.75 30.75 4.75V6.75ZM29.553 6.75H30.75V4.75H29.553V6.75ZM26.1791 5.44014C27.1007 6.28274 28.3042 6.75 29.553 6.75V4.75C28.8037 4.75 28.0816 4.46965 27.5286 3.96409L26.1791 5.44014ZM24.0964 3.53591L26.1791 5.44014L27.5286 3.96409L25.4459 2.05986L24.0964 3.53591ZM22.072 2.75H16.428V4.75H22.072V2.75ZM24.0964 3.53591C23.5434 3.03035 22.8213 2.75 22.072 2.75V4.75C22.3218 4.75 22.5625 4.84345 22.7468 5.01197L24.0964 3.53591ZM26.1791 5.44014L24.0964 3.53591L22.7468 5.01197L24.8296 6.9162L26.1791 5.44014ZM29.553 6.75C28.3042 6.75 27.1007 6.28274 26.1791 5.44014L24.8296 6.9162C26.1198 8.09584 27.8047 8.75 29.553 8.75V6.75ZM30.75 6.75H29.553V8.75H30.75V6.75ZM35.75 11.75C35.75 8.98858 33.5114 6.75 30.75 6.75V8.75C32.4069 8.75 33.75 10.0931 33.75 11.75H35.75ZM35.75 25.5V11.75H33.75V25.5H35.75ZM30.75 30.5C33.5114 30.5 35.75 28.2614 35.75 25.5H33.75C33.75 27.1569 32.4069 28.5 30.75 28.5V30.5ZM7.75 30.5H30.75V28.5H7.75V30.5ZM2.75 25.5C2.75 28.2614 4.98858 30.5 7.75 30.5V28.5C6.09315 28.5 4.75 27.1569 4.75 25.5H2.75ZM2.75 11.75V25.5H4.75V11.75H2.75ZM7.75 6.75C4.98858 6.75 2.75 8.98858 2.75 11.75H4.75C4.75 10.0931 6.09315 8.75 7.75 8.75V6.75ZM8.94705 6.75H7.75V8.75H8.94705V6.75ZM12.3209 5.44014C11.3993 6.28274 10.1958 6.75 8.94705 6.75V8.75C10.6953 8.75 12.3802 8.09584 13.6704 6.9162L12.3209 5.44014ZM14.4036 3.53591L12.3209 5.44014L13.6704 6.9162L15.7532 5.01197L14.4036 3.53591ZM16.428 2.75C15.6787 2.75 14.9566 3.03035 14.4036 3.53591L15.7532 5.01197C15.9375 4.84345 16.1782 4.75 16.428 4.75V2.75ZM14.0107 13.3579C13.9029 13.198 13.7653 13.0603 13.6053 12.9525L12.4875 14.6109C12.4341 14.575 12.3883 14.5291 12.3523 14.4758L14.0107 13.3579ZM15.8427 16.0756L14.0107 13.3579L12.3523 14.4758L14.1842 17.1935L15.8427 16.0756ZM15.4373 18.1579C16.1242 17.6948 16.3057 16.7626 15.8427 16.0756L14.1842 17.1935C14.0299 16.9645 14.0904 16.6538 14.3194 16.4994L15.4373 18.1579ZM14.5988 18.414C14.8976 18.414 15.1895 18.3248 15.4373 18.1579L14.3194 16.4994C14.4019 16.4438 14.4993 16.414 14.5988 16.414V18.414ZM13.5198 18.4146L14.5993 18.414L14.5984 16.414L13.5189 16.4146L13.5198 18.4146ZM19.2721 22C16.821 22 14.7223 19.998 14.5164 17.3374L12.5223 17.4917C12.8015 21.0984 15.6832 24 19.2721 24V22ZM21.7838 21.2386C21.033 21.7357 20.1715 22 19.2721 22V24C20.5718 24 21.8162 23.6159 22.888 22.9061L21.7838 21.2386ZM24.2091 21.7315C23.6755 20.9257 22.5897 20.705 21.7838 21.2386L22.888 22.9061C22.7729 22.9824 22.6178 22.9508 22.5416 22.8357L24.2091 21.7315ZM23.7162 24.1568C24.522 23.6232 24.7427 22.5373 24.2091 21.7315L22.5416 22.8357C22.4653 22.7206 22.4969 22.5655 22.612 22.4892L23.7162 24.1568ZM19.2721 25.5C20.8694 25.5 22.4011 25.0276 23.7162 24.1568L22.612 22.4892C21.6185 23.1471 20.4697 23.5 19.2721 23.5V25.5ZM11.0176 17.4766C11.2956 21.912 14.8413 25.5 19.2721 25.5V23.5C15.9786 23.5 13.2308 20.8161 13.0137 17.3515L11.0176 17.4766ZM10.935 18.414L12.0157 18.4141L12.0157 16.4141L10.935 16.414L10.935 18.414ZM9.43501 16.914C9.43501 17.7425 10.1066 18.414 10.935 18.414V16.414C11.2112 16.414 11.435 16.6379 11.435 16.914H9.43501ZM9.6912 16.0756C9.52421 16.3234 9.43501 16.6153 9.43501 16.914H11.435C11.435 17.0136 11.4053 17.1109 11.3496 17.1935L9.6912 16.0756ZM11.5231 13.3579L9.6912 16.0756L11.3496 17.1935L13.1815 14.4758L11.5231 13.3579ZM13.6053 12.9525C12.9184 12.4895 11.9862 12.671 11.5231 13.3579L13.1815 14.4758C13.0272 14.7048 12.7164 14.7653 12.4875 14.6109L13.6053 12.9525ZM19.1479 10.8525C22.4414 10.8525 25.1892 13.5364 25.4063 17.001L27.4024 16.8759C27.1244 12.4405 23.5787 8.8525 19.1479 8.8525V10.8525ZM15.808 11.8633C16.8015 11.2054 17.9503 10.8525 19.1479 10.8525V8.8525C17.5506 8.8525 16.0189 9.32493 14.7038 10.1957L15.808 11.8633ZM15.8784 11.5168C15.9547 11.6319 15.9231 11.787 15.808 11.8633L14.7038 10.1957C13.898 10.7293 13.6773 11.8152 14.2109 12.621L15.8784 11.5168ZM15.532 11.4464C15.6471 11.3701 15.8022 11.4017 15.8784 11.5168L14.2109 12.621C14.7445 13.4268 15.8303 13.6475 16.6362 13.1139L15.532 11.4464ZM19.1479 10.3525C17.8482 10.3525 16.6038 10.7366 15.532 11.4464L16.6362 13.1139C17.387 12.6168 18.2485 12.3525 19.1479 12.3525V10.3525ZM25.8977 16.8608C25.6185 13.2541 22.7368 10.3525 19.1479 10.3525V12.3525C21.599 12.3525 23.6977 14.3545 23.9036 17.0151L25.8977 16.8608ZM23.8216 17.9385L24.9011 17.9379L24.9002 15.9379L23.8207 15.9385L23.8216 17.9385ZM24.1006 17.8531C24.0181 17.9087 23.9207 17.9385 23.8212 17.9385V15.9385C23.5224 15.9385 23.2305 16.0277 22.9827 16.1946L24.1006 17.8531ZM24.2358 17.159C24.3901 17.388 24.3296 17.6987 24.1006 17.8531L22.9827 16.1946C22.2958 16.6577 22.1143 17.5899 22.5774 18.2769L24.2358 17.159ZM26.0677 19.8767L24.2358 17.159L22.5773 18.2769L24.4093 20.9946L26.0677 19.8767ZM25.9325 19.7415C25.9859 19.7775 26.0317 19.8234 26.0677 19.8767L24.4093 20.9946C24.5171 21.1545 24.6547 21.2922 24.8147 21.4L25.9325 19.7415ZM25.2385 19.8767C25.3928 19.6477 25.7036 19.5872 25.9325 19.7416L24.8147 21.4C25.5016 21.863 26.4338 21.6815 26.8969 20.9946L25.2385 19.8767ZM27.0704 17.159L25.2385 19.8767L26.8969 20.9946L28.7288 18.2769L27.0704 17.159ZM26.985 17.4385C26.985 17.3389 27.0147 17.2415 27.0704 17.159L28.7288 18.2769C28.8958 18.0291 28.985 17.7372 28.985 17.4385H26.985ZM27.485 17.9385C27.2089 17.9385 26.985 17.7146 26.985 17.4385H28.985C28.985 16.61 28.3134 15.9385 27.485 15.9385V17.9385ZM26.4043 17.9384L27.485 17.9385L27.485 15.9385L26.4044 15.9384L26.4043 17.9384Z" fill="black" fill-opacity="0.2" mask="url(#path-1-outside-1_0_9172)"/>
</svg>
